<?xml version="1.0" encoding="UTF-8" standalone="no"?>
<!-- Created with Inkscape (http://www.inkscape.org/) -->

<svg
   xmlns:dc="http://purl.org/dc/elements/1.1/"
   xmlns:cc="http://creativecommons.org/ns#"
   xmlns:rdf="http://www.w3.org/1999/02/22-rdf-syntax-ns#"
   xmlns:svg="http://www.w3.org/2000/svg"
   xmlns="http://www.w3.org/2000/svg"
   xmlns:sodipodi="http://sodipodi.sourceforge.net/DTD/sodipodi-0.dtd"
   xmlns:inkscape="http://www.inkscape.org/namespaces/inkscape"
   version="1.1"
   id="svg2"
   xml:space="preserve"
   width="300"
   height="300"
   viewBox="0 0 299.99999 299.99999"
   sodipodi:docname="LOGO.svg"
   inkscape:version="0.92.4 5da689c313, 2019-01-14"><metadata
     id="metadata8"><rdf:RDF><cc:Work
         rdf:about=""><dc:format>image/svg+xml</dc:format><dc:type
           rdf:resource="http://purl.org/dc/dcmitype/StillImage" /><dc:title></dc:title></cc:Work></rdf:RDF></metadata><defs
     id="defs6"><clipPath
       clipPathUnits="userSpaceOnUse"
       id="clipPath18"><path
         d="M 0,841.89 H 771.166 V 0 H 0 Z"
         id="path16"
         inkscape:connector-curvature="0" /></clipPath></defs><sodipodi:namedview
     pagecolor="#ffffff"
     bordercolor="#666666"
     borderopacity="1"
     objecttolerance="10"
     gridtolerance="10"
     guidetolerance="10"
     inkscape:pageopacity="0"
     inkscape:pageshadow="2"
     inkscape:window-width="939"
     inkscape:window-height="1030"
     id="namedview4"
     showgrid="false"
     inkscape:zoom="1.189304"
     inkscape:cx="158.29296"
     inkscape:cy="98.303003"
     inkscape:window-x="967"
     inkscape:window-y="12"
     inkscape:window-maximized="0"
     inkscape:current-layer="g12" /><g
     id="g10"
     inkscape:groupmode="layer"
     inkscape:label="duohuo"
     transform="matrix(1.3333333,0,0,-1.3333333,-44.079202,720.93463)"><g
       id="g12"><circle
         style="fill:#000000;fill-opacity:1;stroke:none;stroke-width:219.77319336;stroke-linecap:butt;stroke-linejoin:round;stroke-miterlimit:4;stroke-dasharray:none;stroke-opacity:1;paint-order:normal"
         id="path848"
         cx="145.5594"
         cy="-428.20099"
         transform="scale(1,-1)"
         r="112.5" /><g
         id="g14"
         clip-path="url(#clipPath18)"
         style="fill:#ffffff"><g
           id="g20"
           transform="translate(105.8707,492.0995)"
           style="fill:#ffffff"><path
             d="m 0,0 c -35.291,0 -63.899,-28.608 -63.899,-63.899 0,-35.29 28.608,-63.898 63.899,-63.898 16.69,0 31.879,6.404 43.261,16.881 v 94.034 C 31.879,-6.404 16.69,0 0,0 m 0,-20.638 c 8.064,0 15.865,-2.23 22.623,-6.386 v -73.749 C 15.865,-104.929 8.064,-107.16 0,-107.16 c -23.854,0 -43.261,19.407 -43.261,43.261 0,23.855 19.407,43.261 43.261,43.261"
             style="fill:#ffffff;fill-opacity:1;fill-rule:nonzero;stroke:none"
             id="path22"
             inkscape:connector-curvature="0" /></g><g
           id="g24"
           transform="translate(249.1471,428.2006)"
           style="fill:#ffffff"><path
             d="M 0,0 C 0,29.667 -20.219,54.604 -47.626,61.801 V 40.074 C -31.816,33.629 -20.638,18.1 -20.638,0 c 0,-18.1 -11.178,-33.629 -26.988,-40.073 V -61.801 C -20.219,-54.604 0,-29.666 0,0"
             style="fill:#ffffff;fill-opacity:1;fill-rule:nonzero;stroke:none"
             id="path26"
             inkscape:connector-curvature="0" /></g><path
           d="m 233.272,419.867 h -79.377 v 20.638 h 79.377 z"
           style="fill:#ffffff;fill-opacity:1;fill-rule:nonzero;stroke:none"
           id="path28"
           inkscape:connector-curvature="0" /></g></g></g></svg>