<?xml version="1.0" encoding="UTF-8" standalone="no"?>
<!-- Created with Inkscape (http://www.inkscape.org/) -->

<svg
   xmlns:dc="http://purl.org/dc/elements/1.1/"
   xmlns:cc="http://creativecommons.org/ns#"
   xmlns:rdf="http://www.w3.org/1999/02/22-rdf-syntax-ns#"
   xmlns:svg="http://www.w3.org/2000/svg"
   xmlns="http://www.w3.org/2000/svg"
   xmlns:sodipodi="http://sodipodi.sourceforge.net/DTD/sodipodi-0.dtd"
   xmlns:inkscape="http://www.inkscape.org/namespaces/inkscape"
   version="1.1"
   id="svg2"
   xml:space="preserve"
   width="300"
   height="300"
   viewBox="0 0 299.99999 299.99999"
   sodipodi:docname="TransLOGO.svg"
   inkscape:version="0.92.4 5da689c313, 2019-01-14"><metadata
     id="metadata8"><rdf:RDF><cc:Work
         rdf:about=""><dc:format>image/svg+xml</dc:format><dc:type
           rdf:resource="http://purl.org/dc/dcmitype/StillImage" /><dc:title /></cc:Work></rdf:RDF></metadata><defs
     id="defs6"><clipPath
       clipPathUnits="userSpaceOnUse"
       id="clipPath18"><path
         d="M 0,841.89 H 771.166 V 0 H 0 Z"
         id="path16"
         inkscape:connector-curvature="0" /></clipPath></defs><sodipodi:namedview
     pagecolor="#ffffff"
     bordercolor="#666666"
     borderopacity="1"
     objecttolerance="10"
     gridtolerance="10"
     guidetolerance="10"
     inkscape:pageopacity="0"
     inkscape:pageshadow="2"
     inkscape:window-width="1920"
     inkscape:window-height="1056"
     id="namedview4"
     showgrid="false"
     inkscape:zoom="1.6819298"
     inkscape:cx="103.90934"
     inkscape:cy="113.73994"
     inkscape:window-x="0"
     inkscape:window-y="0"
     inkscape:window-maximized="0"
     inkscape:current-layer="g12" /><g
     id="g10"
     inkscape:groupmode="layer"
     inkscape:label="duohuo"
     transform="matrix(1.3333333,0,0,-1.3333333,-44.079202,720.93463)"><g
       id="g12"><circle
         style="fill:#e57373;fill-opacity:1;stroke:none;stroke-width:5.17858601;stroke-linecap:butt;stroke-linejoin:round;stroke-miterlimit:4;stroke-dasharray:none;stroke-opacity:1;paint-order:normal"
         id="path934"
         cx="145.5594"
         cy="-428.20099"
         transform="scale(1,-1)"
         r="112.5" /><g
         id="g14"
         clip-path="url(#clipPath18)"
         style="fill:#ffffff"><g
           id="g20"
           transform="translate(105.8707,492.0995)"
           style="fill:#ffffff" /><g
           id="g24"
           transform="translate(249.1471,428.2006)"
           style="fill:#ffffff" /></g><path
         style="fill:#ffffff;fill-opacity:1;stroke:none;stroke-width:2.83464574;stroke-linecap:butt;stroke-linejoin:round;stroke-miterlimit:4;stroke-dasharray:none;stroke-opacity:1;paint-order:normal"
         d="m 145.55941,540.701 a 112.5,112.5 0 0 1 -9.58447,-0.48047 112.5,112.5 0 0 0 9.58447,0.48047 z m 9.58154,-0.48047 a 112.5,112.5 0 0 0 5.60596,-0.67969 112.5,112.5 0 0 1 -5.60596,0.67969 z m -24.76172,-0.67823 a 112.5,112.5 0 0 1 -5.54004,-0.83789 112.5,112.5 0 0 0 5.54004,0.83789 z m 35.896,-0.83642 a 112.5,112.5 0 0 0 5.51221,-1.23779 112.5,112.5 0 0 1 -5.51221,1.23779 z m -46.93945,-1.23633 a 112.5,112.5 0 0 1 -5.42139,-1.38428 112.5,112.5 0 0 0 5.42139,1.38428 z m 57.86865,-1.38428 a 112.5,112.5 0 0 0 5.35839,-1.78125 112.5,112.5 0 0 1 -5.35839,1.78125 z m -68.64844,-1.78125 a 112.5,112.5 0 0 1 -5.25879,-1.91894 112.5,112.5 0 0 0 5.25879,1.91894 z m 79.26562,-1.91894 a 112.5,112.5 0 0 0 5.14307,-2.30274 112.5,112.5 0 0 1 -5.14307,2.30274 z m -89.667483,-2.30274 a 112.5,112.5 0 0 1 -5.04346,-2.43603 112.5,112.5 0 0 0 5.04346,2.43603 z m 99.854013,-2.43603 a 112.5,112.5 0 0 0 4.87353,-2.79492 112.5,112.5 0 0 1 -4.87353,2.79492 z M 88.229817,524.84699 a 112.5,112.5 0 0 1 -4.7959,-2.93994 112.5,112.5 0 0 0 4.7959,2.93994 z m 119.462403,-2.9458 a 112.5,112.5 0 0 0 4.54395,-3.24902 112.5,112.5 0 0 1 -4.54395,3.24902 z M 78.867997,518.64191 a 112.5,112.5 0 0 1 -4.4707,-3.39843 112.5,112.5 0 0 0 4.4707,3.39843 z m 137.854993,-3.3999 a 112.5,112.5 0 0 0 4.23046,-3.71484 112.5,112.5 0 0 1 -4.23046,3.71484 z M 70.165357,511.52717 a 112.5,112.5 0 0 1 -4.10596,-3.82617 112.5,112.5 0 0 0 4.10596,3.82617 z M 225.05941,507.701 a 112.5,112.5 0 0 0 3.81739,-4.09864 112.5,112.5 0 0 1 -3.81739,4.09864 z M 62.233227,503.59357 a 112.5,112.5 0 0 1 -3.71484,-4.229 112.5,112.5 0 0 0 3.71484,4.229 z m 170.375993,-4.23925 a 112.5,112.5 0 0 0 3.375,-4.44141 112.5,112.5 0 0 1 -3.375,4.44141 z M 55.118487,494.8924 a 112.5,112.5 0 0 1 -3.26807,-4.57031 112.5,112.5 0 0 0 3.26807,4.57031 z m 50.752443,-2.79346 c -35.291003,0 -63.899413,-28.60693 -63.899413,-63.89795 0,-35.28999 28.60841,-63.89795 63.899413,-63.89795 16.68999,0 31.87924,6.40386 43.26123,16.88086 v 94.03418 c -11.38199,10.478 -26.57124,16.88086 -43.26123,16.88086 z m 133.39893,-1.77832 a 112.5,112.5 0 0 0 2.9414,-4.79736 112.5,112.5 0 0 1 -2.9414,4.79736 z m -37.74902,-0.31933 v -21.72657 c 12.07629,-4.92293 21.44278,-15.14866 25.19677,-27.76904 H 153.89437 V 419.8675 h 73.80762 c -2.82915,-14.43201 -12.86051,-26.31088 -26.18115,-31.74024 v -21.72803 c 27.40699,7.197 47.62646,32.13576 47.62646,61.80176 0,29.66701 -20.21947,54.6033 -47.62646,61.8003 z M 48.907547,485.52326 a 112.5,112.5 0 0 1 -2.78906,-4.86182 112.5,112.5 0 0 0 2.78906,4.86182 z m 196.091313,-4.85889 a 112.5,112.5 0 0 0 2.45508,-5.08593 112.5,112.5 0 0 1 -2.45508,5.08593 z M 43.669267,475.59162 a 112.5,112.5 0 0 1 -2.29395,-5.12549 112.5,112.5 0 0 0 2.29395,5.12549 z m 62.201663,-4.1294 c 8.064,0 15.86506,-2.23071 22.62305,-6.38671 v -73.74903 c -6.75799,-4.156 -14.55905,-6.38672 -22.62305,-6.38672 -23.854003,0 -43.261233,19.40724 -43.261233,43.26123 0,23.85502 19.40723,43.26123 43.261233,43.26123 z m 143.8711,-0.99609 a 112.5,112.5 0 0 0 1.92041,-5.26172 112.5,112.5 0 0 1 -1.92041,5.26172 z m -210.291513,-5.2749 a 112.5,112.5 0 0 1 -1.77393,-5.34082 112.5,112.5 0 0 0 1.77393,5.34082 z m 213.993173,-5.34375 a 112.5,112.5 0 0 0 1.38428,-5.42725 112.5,112.5 0 0 1 -1.38428,5.42725 z M 36.286457,454.40412 a 112.5,112.5 0 0 1 -1.22754,-5.46826 112.5,112.5 0 0 0 1.22754,5.46826 z m 219.776373,-5.48437 a 112.5,112.5 0 0 0 0.83643,-5.53419 112.5,112.5 0 0 1 -0.83643,5.53419 z M 34.212237,443.33576 a 112.5,112.5 0 0 1 -0.67236,-5.53272 112.5,112.5 0 0 0 0.67236,5.53272 z m 223.366703,-5.55322 a 112.5,112.5 0 0 0 0.48047,-9.58155 112.5,112.5 0 0 1 -0.48047,9.58155 z M 33.059397,428.20099 a 112.5,112.5 0 0 1 0.48048,-9.60351 112.5,112.5 0 0 0 -0.48048,9.60351 z m 224.519543,-9.58301 a 112.5,112.5 0 0 0 -0.67968,-5.60302 112.5,112.5 0 0 1 0.67968,5.60302 z M 34.212237,413.06476 a 112.5,112.5 0 0 1 0.84522,-5.6001 112.5,112.5 0 0 0 -0.84522,5.6001 z m 221.850593,-5.58252 a 112.5,112.5 0 0 0 -1.23486,-5.50488 112.5,112.5 0 0 1 1.23486,5.50488 z M 36.286457,401.99347 a 112.5,112.5 0 0 1 1.38867,-5.44043 112.5,112.5 0 0 0 -1.38867,5.44043 z m 217.157233,-5.4375 a 112.5,112.5 0 0 0 -1.78272,-5.36425 112.5,112.5 0 0 1 1.78272,5.36425 z M 39.451977,391.2049 a 112.5,112.5 0 0 1 1.92188,-5.26318 112.5,112.5 0 0 0 -1.92188,5.26318 z m 210.292983,-5.26318 a 112.5,112.5 0 0 0 -2.29687,-5.13135 112.5,112.5 0 0 1 2.29687,5.13135 z M 43.675127,380.79865 a 112.5,112.5 0 0 1 2.44336,-5.05811 112.5,112.5 0 0 0 -2.44336,5.05811 z m 201.323733,-5.06103 a 112.5,112.5 0 0 0 -2.78466,-4.85304 112.5,112.5 0 0 1 2.78466,4.85304 z M 48.904617,370.88458 a 112.5,112.5 0 0 1 2.94726,-4.80761 112.5,112.5 0 0 0 -2.94726,4.80761 z M 239.2684,366.07843 a 112.5,112.5 0 0 0 -3.27686,-4.58203 112.5,112.5 0 0 1 3.27686,4.58203 z M 55.112627,361.51691 a 112.5,112.5 0 0 1 3.41162,-4.48681 112.5,112.5 0 0 0 -3.41162,4.48681 z m 177.490733,-4.47656 a 112.5,112.5 0 0 0 -3.71777,-4.2334 112.5,112.5 0 0 1 3.71777,4.2334 z M 62.224437,352.8172 a 112.5,112.5 0 0 1 3.83496,-4.11621 112.5,112.5 0 0 0 -3.83496,4.11621 z m 162.834973,-4.11621 a 112.5,112.5 0 0 0 -4.11621,-3.83496 112.5,112.5 0 0 1 4.11621,3.83496 z M 70.175607,344.86603 a 112.5,112.5 0 0 1 4.2129,-3.7002 112.5,112.5 0 0 0 -4.2129,3.7002 z m 146.556173,-3.7002 a 112.5,112.5 0 0 0 -4.49561,-3.41748 112.5,112.5 0 0 1 4.49561,3.41748 z M 78.867997,337.76007 a 112.5,112.5 0 0 1 4.57763,-3.27393 112.5,112.5 0 0 0 -4.57763,3.27393 z m 128.812513,-3.26806 a 112.5,112.5 0 0 0 -4.7754,-2.92823 112.5,112.5 0 0 1 4.7754,2.92823 z M 88.204917,331.56818 a 112.5,112.5 0 0 1 4.90722,-2.81543 112.5,112.5 0 0 0 -4.90722,2.81543 z m 109.801753,-2.81543 a 112.5,112.5 0 0 0 -5.04199,-2.43457 112.5,112.5 0 0 1 5.04199,2.43457 z m -99.852543,-2.43457 a 112.5,112.5 0 0 1 5.140143,-2.30127 112.5,112.5 0 0 0 -5.140143,2.30127 z m 89.670423,-2.30127 a 112.5,112.5 0 0 0 -5.28956,-1.93067 112.5,112.5 0 0 1 5.28956,1.93067 z m -79.24073,-1.93067 a 112.5,112.5 0 0 1 5.31152,-1.76514 112.5,112.5 0 0 0 -5.31152,1.76514 z m 68.63965,-1.76514 a 112.5,112.5 0 0 0 -5.48438,-1.39892 112.5,112.5 0 0 1 5.48438,1.39892 z m -57.84082,-1.40038 a 112.5,112.5 0 0 1 5.44043,-1.22168 112.5,112.5 0 0 0 -5.44043,1.22168 z m 46.91015,-1.22168 a 112.5,112.5 0 0 0 -5.56347,-0.84082 112.5,112.5 0 0 1 5.56347,0.84082 z m -35.89746,-0.84229 a 112.5,112.5 0 0 1 5.57667,-0.67676 112.5,112.5 0 0 0 -5.57667,0.67676 z m 24.74854,-0.67676 a 112.5,112.5 0 0 0 -9.58447,-0.479 112.5,112.5 0 0 1 9.58447,0.479 z"
         id="path901-3"
         inkscape:connector-curvature="0" /></g></g></svg>