<?xml version="1.0" encoding="UTF-8" standalone="no"?>
<!-- Created with Inkscape (http://www.inkscape.org/) -->

<svg
   xmlns:dc="http://purl.org/dc/elements/1.1/"
   xmlns:cc="http://creativecommons.org/ns#"
   xmlns:rdf="http://www.w3.org/1999/02/22-rdf-syntax-ns#"
   xmlns:svg="http://www.w3.org/2000/svg"
   xmlns="http://www.w3.org/2000/svg"
   xmlns:sodipodi="http://sodipodi.sourceforge.net/DTD/sodipodi-0.dtd"
   xmlns:inkscape="http://www.inkscape.org/namespaces/inkscape"
   version="1.1"
   id="svg2"
   xml:space="preserve"
   width="300"
   height="300"
   viewBox="0 0 299.99999 299.99999"
   sodipodi:docname="TransLOGO.svg"
   inkscape:version="0.92.4 5da689c313, 2019-01-14"><metadata
     id="metadata8"><rdf:RDF><cc:Work
         rdf:about=""><dc:format>image/svg+xml</dc:format><dc:type
           rdf:resource="http://purl.org/dc/dcmitype/StillImage" /><dc:title></dc:title></cc:Work></rdf:RDF></metadata><defs
     id="defs6"><clipPath
       clipPathUnits="userSpaceOnUse"
       id="clipPath18"><path
         d="M 0,841.89 H 771.166 V 0 H 0 Z"
         id="path16"
         inkscape:connector-curvature="0" /></clipPath></defs><sodipodi:namedview
     pagecolor="#ffffff"
     bordercolor="#666666"
     borderopacity="1"
     objecttolerance="10"
     gridtolerance="10"
     guidetolerance="10"
     inkscape:pageopacity="0"
     inkscape:pageshadow="2"
     inkscape:window-width="939"
     inkscape:window-height="1030"
     id="namedview4"
     showgrid="false"
     inkscape:zoom="1.189304"
     inkscape:cx="158.29296"
     inkscape:cy="98.303003"
     inkscape:window-x="967"
     inkscape:window-y="12"
     inkscape:window-maximized="0"
     inkscape:current-layer="g12" /><g
     id="g10"
     inkscape:groupmode="layer"
     inkscape:label="duohuo"
     transform="matrix(1.3333333,0,0,-1.3333333,-44.079202,720.93463)"><g
       id="g12"><path
         style="fill:#ffffff;fill-opacity:1;stroke:none;stroke-width:293.03091431;stroke-linecap:butt;stroke-linejoin:round;stroke-miterlimit:4;stroke-dasharray:none;stroke-opacity:1;paint-order:normal"
         d="M 150 0 A 150 150 0 0 0 0 150 A 150 150 0 0 0 150 300 A 150 150 0 0 0 300 150 A 150 150 0 0 0 150 0 z M 97.082031 64.802734 C 119.33536 64.802734 139.58767 73.339881 154.76367 87.310547 L 154.76367 212.68945 C 139.58767 226.65879 119.33536 235.19727 97.082031 235.19727 C 50.027366 235.19727 11.882812 197.05333 11.882812 150 C 11.882813 102.94533 50.027366 64.802734 97.082031 64.802734 z M 224.61523 67.599609 C 261.1579 77.195609 288.11719 110.444 288.11719 150 C 288.11719 189.55467 261.1579 222.80634 224.61523 232.40234 L 224.61523 203.43164 C 242.37608 196.1925 255.75124 180.35399 259.52344 161.11133 L 161.11328 161.11133 L 161.11328 133.59375 L 258.21094 133.59375 C 253.20561 116.76658 240.71695 103.13227 224.61523 96.568359 L 224.61523 67.599609 z M 97.082031 92.318359 C 65.276699 92.318359 39.400391 118.19333 39.400391 150 C 39.400391 181.80533 65.276699 207.68164 97.082031 207.68164 C 107.83403 207.68164 118.23543 204.70735 127.24609 199.16602 L 127.24609 100.83398 C 118.23543 95.292651 107.83403 92.318359 97.082031 92.318359 z "
         transform="matrix(0.75000002,0,0,-0.75000002,33.059402,540.70099)"
         id="path848" /><g
         id="g14"
         clip-path="url(#clipPath18)"
         style="fill:#ffffff"><g
           id="g20"
           transform="translate(105.8707,492.0995)"
           style="fill:#ffffff" /><g
           id="g24"
           transform="translate(249.1471,428.2006)"
           style="fill:#ffffff" /></g></g></g></svg>